<svg width="279" height="271" viewBox="0 0 279 271" fill="none" xmlns="http://www.w3.org/2000/svg">
<path d="M221.508 28.5371V64.1817H206.805L197.322 73.5115V99.0946L200.304 102.158L212.463 90.1144L235.853 113.505L213.791 136.579C210.449 139.921 205.915 141.802 201.188 141.802H199.421C194.694 141.802 190.16 139.921 186.817 136.579L167.455 117.216C164.113 113.874 162.236 109.34 162.236 104.613V65.7215C162.236 60.9944 164.113 56.4608 167.455 53.1182L186.817 33.7561C190.16 30.4135 194.694 28.5372 199.421 28.5371H221.508Z" fill="#11192E" style="fill:#11192E;fill:color(display-p3 0.0667 0.0980 0.1804);fill-opacity:1;"/>
<path d="M160.18 125.305C164.907 125.305 169.441 127.181 172.783 130.524L192.146 149.886C195.488 153.228 197.369 157.762 197.369 162.489V215.407C197.368 220.134 195.488 224.668 192.146 228.011L172.783 247.373C169.441 250.715 164.907 252.592 160.18 252.592H158.487C153.76 252.592 149.226 250.715 145.884 247.373L126.522 228.011C123.179 224.668 121.303 220.134 121.303 215.407L121.303 162.489C121.303 157.762 123.179 153.228 126.522 149.886L145.884 130.524C149.226 127.181 153.76 125.305 158.487 125.305H160.18ZM156.947 167.576V210.32L159.331 212.704L161.72 210.32V167.576L159.331 165.188L156.947 167.576Z" fill="#11192E" style="fill:#11192E;fill:color(display-p3 0.0667 0.0980 0.1804);fill-opacity:1;"/>
<path d="M119.452 0C124.179 0 128.712 1.87646 132.055 5.21894L151.417 24.5811C154.76 27.9237 156.64 32.4573 156.64 37.1844V104.721C156.64 109.448 154.759 113.983 151.417 117.325L132.055 136.687C128.712 140.029 124.178 141.906 119.452 141.906H117.759C113.032 141.906 108.498 140.029 105.155 136.687L85.7932 117.325C82.4509 113.983 80.5747 109.448 80.5742 104.721L80.5742 37.1844C80.5743 32.4573 82.4506 27.9237 85.7932 24.5811L105.155 5.21894C108.498 1.87635 113.032 7.31422e-05 117.759 0H119.452ZM116.219 42.1729V99.5306L118.603 101.915L120.992 99.5306V42.1729L118.603 39.7844L116.219 42.1729Z" fill="#11192E" style="fill:#11192E;fill:color(display-p3 0.0667 0.0980 0.1804);fill-opacity:1;"/>
<path d="M213.748 143.371C220.409 140.612 228.074 142.136 233.172 147.234L247.96 164.882H278.996V252.491C278.995 259.699 274.649 266.199 267.989 268.957C261.33 271.715 253.663 270.191 248.566 265.094L235.967 252.491H202.746L202.746 159.837C202.746 152.628 207.088 146.13 213.748 143.371Z" fill="#11192E" style="fill:#11192E;fill:color(display-p3 0.0667 0.0980 0.1804);fill-opacity:1;"/>
<path fill-rule="evenodd" clip-rule="evenodd" d="M39.1174 28.6332C43.5226 28.8518 47.7034 30.6965 50.837 33.8301L69.9103 52.9037C73.2525 56.2459 75.1331 60.7804 75.1336 65.507V84.0127C75.1336 88.7399 73.2529 93.2734 69.9103 96.616L62.2286 104.299V109.564H63.5586L64.4816 109.586C69.095 109.825 73.4506 111.85 76.6124 115.251L95.2703 135.318C101.973 142.527 101.561 153.809 94.3517 160.511C87.1425 167.214 75.8652 166.801 69.1624 159.593L55.7935 145.213H44.4063C41.3725 145.213 38.5162 144.455 36.0157 143.117V165.089H0.371094V46.4336C0.371094 36.5897 8.34946 28.6113 18.1934 28.6113H38.2337L39.1174 28.6332ZM36.0157 80.0973L39.4847 76.6282V72.8913L36.0157 69.4223V80.0973Z" fill="#11192E" style="fill:#11192E;fill:color(display-p3 0.0667 0.0980 0.1804);fill-opacity:1;"/>
<path d="M275.358 146.098L275.323 146.081L273.77 147.237L272.941 145.788L274.737 145.011V144.977L272.941 144.2L273.753 142.75L275.306 143.907L275.341 143.889L275.134 141.974H276.808L276.583 143.889L276.618 143.907L278.171 142.75L279 144.2L277.205 144.959V144.994L279 145.788L278.189 147.237L276.618 146.064L276.583 146.081L276.808 148.031H275.134L275.358 146.098Z" fill="#11192E" style="fill:#11192E;fill:color(display-p3 0.0667 0.0980 0.1804);fill-opacity:1;"/>
<path d="M2.65188 224.656V234.674H1.41433V224.656H2.65188ZM5.26497 227.573H6.09L6.22259 228.221H6.26679C6.6793 227.912 7.57799 227.352 8.57981 227.352C9.5227 227.352 10.1562 227.661 10.5245 228.295H10.554C11.0549 227.912 11.8799 227.352 12.9407 227.352C14.5465 227.352 15.3716 228.236 15.3716 230.048V234.674H14.1635V230.254C14.1635 229.016 13.8099 228.383 12.6755 228.383C11.9831 228.383 11.3054 228.781 10.8486 229.179C10.8928 229.4 10.9223 229.768 10.9223 230.048V234.674H9.71423V230.254C9.71423 229.016 9.43431 228.383 8.31463 228.383C7.54853 228.383 6.87083 228.737 6.47304 229.016V234.674H5.26497V227.573ZM21.4377 231.374H20.0971C19.051 231.374 18.4323 231.801 18.4323 232.744C18.4323 233.436 18.7859 233.864 19.5962 233.864C20.2444 233.864 20.8337 233.775 21.4377 233.259V231.374ZM22.6458 234.674H21.7619L21.644 234.026H21.6145C21.0105 234.512 20.2297 234.895 19.331 234.895C18.0345 234.895 17.1947 234.114 17.1947 232.744C17.1947 230.932 18.6238 230.519 19.9939 230.519H21.4377V230.063C21.4377 229.105 20.981 228.383 19.9203 228.383C19.2573 228.383 18.5501 228.589 18.0345 228.987L17.5336 228.147C18.1376 227.676 18.9627 227.352 19.9645 227.352C21.7766 227.352 22.6458 228.398 22.6458 230.092V234.674ZM29.4249 233.156V229.031C28.9977 228.604 28.3052 228.383 27.657 228.383C26.2721 228.383 25.8301 229.65 25.8301 231.094C25.8301 232.552 26.2721 233.805 27.657 233.805C28.3052 233.805 28.9977 233.613 29.4249 233.156ZM30.633 227.573V234.762C30.633 236.574 29.528 237.812 27.6717 237.812C26.6699 237.812 25.948 237.606 25.2998 237.296L25.6239 236.412C26.2132 236.692 26.9056 236.81 27.6717 236.81C28.7325 236.81 29.4249 236.132 29.4249 234.895V234.129H29.3954C28.9387 234.497 28.3494 234.851 27.3476 234.851C25.4324 234.851 24.5926 233.156 24.5926 231.094C24.5926 229.031 25.4324 227.352 27.3476 227.352C28.3789 227.352 29.1597 227.853 29.6017 228.221H29.6312L29.7932 227.573H30.633ZM34.2263 234.674H33.0182V227.573H34.2263V234.674ZM32.8561 225.348C32.8561 224.862 33.1508 224.538 33.6222 224.538C34.1084 224.538 34.403 224.862 34.403 225.348C34.403 225.864 34.1084 226.158 33.6222 226.158C33.1508 226.158 32.8561 225.864 32.8561 225.348ZM36.615 227.573H37.4695L37.6168 228.221H37.6463C38.0294 227.912 39.0164 227.352 39.9593 227.352C41.4326 227.352 42.3313 228.236 42.3313 230.048V234.674H41.1232V230.254C41.1232 229.016 40.6518 228.383 39.6499 228.383C38.987 228.383 38.1767 228.751 37.8231 229.016V234.674H36.615V227.573ZM50.1676 231.433H45.4236C45.4236 232.729 46.3076 233.864 47.5599 233.864C48.4586 233.864 49.0332 233.569 49.5193 233.215L49.976 234.114C49.4015 234.527 48.5912 234.895 47.4568 234.895C45.2174 234.895 44.2598 233.142 44.2598 231.094C44.2598 229.179 45.2763 227.352 47.3242 227.352C49.4015 227.352 50.2412 228.84 50.2412 230.416C50.2412 230.77 50.2118 231.182 50.1676 231.433ZM45.4826 230.519H49.0479C49.0626 230.416 49.0626 230.283 49.0626 230.18C49.0626 229.179 48.4586 228.383 47.3242 228.383C46.2339 228.383 45.5562 229.341 45.4826 230.519ZM49.0921 224.214V224.361L47.9282 226.144H46.8822V225.996L47.7514 224.214H49.0921ZM2.40142 246.031V250.215C2.82867 250.643 3.5211 250.864 4.18407 250.864C5.55421 250.864 5.99619 249.567 5.99619 248.123C5.99619 246.679 5.55421 245.383 4.18407 245.383C3.5211 245.383 2.82867 245.604 2.40142 246.031ZM1.19334 244.573H2.04784L2.19517 245.221H2.2099C2.68134 244.853 3.49164 244.352 4.50819 244.352C6.43817 244.352 7.23373 246.061 7.23373 248.123C7.23373 250.186 6.43817 251.895 4.50819 251.895C3.49164 251.895 2.90233 251.556 2.43089 251.173H2.40142V254.591H1.19334V244.573ZM12.978 248.374H11.6373C10.5913 248.374 9.97251 248.801 9.97251 249.744C9.97251 250.436 10.3261 250.864 11.1364 250.864C11.7846 250.864 12.3739 250.775 12.978 250.259V248.374ZM14.186 251.674H13.3021L13.1842 251.026H13.1548C12.5507 251.512 11.7699 251.895 10.8712 251.895C9.57473 251.895 8.73497 251.114 8.73497 249.744C8.73497 247.932 10.164 247.519 11.5342 247.519H12.978V247.063C12.978 246.105 12.5213 245.383 11.4605 245.383C10.7975 245.383 10.0904 245.589 9.57473 245.987L9.07382 245.147C9.67786 244.676 10.5029 244.352 11.5047 244.352C13.3168 244.352 14.186 245.398 14.186 247.092V251.674ZM16.5159 244.573H17.3704L17.5177 245.324H17.5472C17.9449 244.72 18.6079 244.352 19.374 244.352C19.6245 244.352 19.8897 244.396 20.0665 244.455L19.8897 245.53C19.6687 245.471 19.4182 245.442 19.2267 245.442C18.4459 245.442 18.0186 245.795 17.724 246.385V251.674H16.5159V244.573ZM31.7921 241.656V241.803L28.3447 251.674H27.1072L23.6745 241.803V241.656H24.9709L26.9746 247.711L27.7259 250.451H27.7554L28.5068 247.696L30.4809 241.656H31.7921ZM33.6277 248.123C33.6277 249.597 34.1287 250.864 35.5872 250.864C37.0605 250.864 37.5908 249.597 37.5908 248.123C37.5908 246.65 37.0605 245.383 35.5872 245.383C34.1287 245.383 33.6277 246.65 33.6277 248.123ZM38.8284 248.123C38.8284 250.186 37.8855 251.895 35.5872 251.895C33.3036 251.895 32.3902 250.186 32.3902 248.123C32.3902 246.061 33.3036 244.352 35.5872 244.352C37.8855 244.352 38.8284 246.061 38.8284 248.123ZM42.0831 251.674H40.8751V241.361H42.0831V251.674ZM45.7656 248.374H45.7361V251.674H44.5281V241.361H45.7361V247.873H45.7656L48.5501 244.573H49.9497V244.676L46.9295 248.094L50.0528 251.556V251.674H48.5648L45.7656 248.374ZM51.1636 251.217L51.5909 250.259C52.1655 250.628 52.7695 250.864 53.5209 250.864C54.4195 250.864 54.8321 250.377 54.8321 249.773C54.8321 249.258 54.5227 248.992 53.8744 248.771L53.0789 248.506C52.0476 248.153 51.2815 247.622 51.2815 246.503C51.2815 245.309 52.2244 244.352 53.7271 244.352C54.6258 244.352 55.274 244.543 55.937 244.853L55.5392 245.825C54.9499 245.53 54.3459 245.383 53.7713 245.383C52.8874 245.383 52.519 245.899 52.519 246.473C52.519 246.945 52.7842 247.239 53.4472 247.46L54.228 247.696C55.274 248.005 56.0696 248.624 56.0696 249.759C56.0696 250.981 55.1267 251.895 53.5945 251.895C52.4601 251.895 51.8266 251.644 51.1636 251.217ZM67.6154 244.573V244.72L65.3908 251.674H64.2269L62.7684 247.077L62.4442 245.751H62.4148L62.0907 247.077L60.6469 251.674H59.483L57.2583 244.72V244.573H58.4812L59.7924 249.066L60.087 250.363H60.1165L60.4259 249.066L61.8107 244.573H63.0483L64.4479 249.066L64.7573 250.363H64.7867L65.0814 249.066L66.3926 244.573H67.6154ZM72.9589 248.374H71.6182C70.5722 248.374 69.9534 248.801 69.9534 249.744C69.9534 250.436 70.307 250.864 71.1173 250.864C71.7655 250.864 72.3548 250.775 72.9589 250.259V248.374ZM74.1669 251.674H73.283L73.1651 251.026H73.1357C72.5316 251.512 71.7508 251.895 70.8521 251.895C69.5556 251.895 68.7159 251.114 68.7159 249.744C68.7159 247.932 70.1449 247.519 71.5151 247.519H72.9589V247.063C72.9589 246.105 72.5021 245.383 71.4414 245.383C70.7784 245.383 70.0713 245.589 69.5556 245.987L69.0547 245.147C69.6587 244.676 70.4838 244.352 71.4856 244.352C73.2977 244.352 74.1669 245.398 74.1669 247.092V251.674ZM80.946 250.156V246.031C80.5188 245.604 79.8264 245.383 79.1781 245.383C77.7932 245.383 77.3513 246.65 77.3513 248.094C77.3513 249.552 77.7932 250.805 79.1781 250.805C79.8264 250.805 80.5188 250.613 80.946 250.156ZM82.1541 244.573V251.762C82.1541 253.574 81.0492 254.812 79.1928 254.812C78.191 254.812 77.4691 254.606 76.8209 254.296L77.145 253.412C77.7343 253.692 78.4268 253.81 79.1928 253.81C80.2536 253.81 80.946 253.132 80.946 251.895V251.129H80.9166C80.4599 251.497 79.8706 251.851 78.8687 251.851C76.9535 251.851 76.1137 250.156 76.1137 248.094C76.1137 246.031 76.9535 244.352 78.8687 244.352C79.9 244.352 80.6808 244.853 81.1228 245.221H81.1523L81.3144 244.573H82.1541ZM90.0493 248.433H85.3054C85.3054 249.729 86.1894 250.864 87.4416 250.864C88.3403 250.864 88.9149 250.569 89.4011 250.215L89.8578 251.114C89.2832 251.527 88.4729 251.895 87.3385 251.895C85.0991 251.895 84.1415 250.142 84.1415 248.094C84.1415 246.179 85.1581 244.352 87.2059 244.352C89.2832 244.352 90.123 245.84 90.123 247.416C90.123 247.77 90.0935 248.182 90.0493 248.433ZM85.3643 247.519H88.9296C88.9444 247.416 88.9444 247.283 88.9444 247.18C88.9444 246.179 88.3403 245.383 87.2059 245.383C86.1157 245.383 85.438 246.341 85.3643 247.519ZM92.0639 244.573H92.9184L93.0657 245.221H93.0952C93.4782 244.912 94.4653 244.352 95.4082 244.352C96.8815 244.352 97.7802 245.236 97.7802 247.048V251.674H96.5721V247.254C96.5721 246.016 96.1006 245.383 95.0988 245.383C94.4358 245.383 93.6256 245.751 93.272 246.016V251.674H92.0639V244.573Z" fill="#11192E" style="fill:#11192E;fill:color(display-p3 0.0667 0.0980 0.1804);fill-opacity:1;"/>
</svg>
