<svg width="19" height="20" viewBox="0 0 19 20" fill="none" xmlns="http://www.w3.org/2000/svg">
<path fill-rule="evenodd" clip-rule="evenodd" d="M8.46959 12.6249C8.87424 12.199 8.87424 11.5086 8.46959 11.0827C7.33291 9.88628 7.33291 7.94651 8.46959 6.7498L11.9587 3.07837C13.0953 1.88198 14.9383 1.88198 16.0753 3.07837C17.2122 4.27477 17.212 6.21454 16.0753 7.41124L14.9969 8.54532C14.5923 8.97123 14.5923 9.66165 14.9969 10.0875C15.4016 10.5135 16.0575 10.5135 16.4622 10.0875L17.5405 8.95347C19.4865 6.90527 19.4865 3.58435 17.5405 1.53615C15.5946 -0.51205 12.4394 -0.51205 10.4934 1.53615L7.00434 5.20727C5.05837 7.25546 5.05837 10.5761 7.00434 12.6243C7.40899 13.0502 8.06495 13.0502 8.46959 12.6243V12.6249ZM10.4925 7.41156C10.0879 7.83746 10.0879 8.52788 10.4925 8.95378C11.6292 10.1502 11.6292 12.0899 10.4925 13.2867L7.03897 16.9216C5.91857 18.1348 4.07561 18.1626 2.92295 16.9833C1.77029 15.8041 1.74394 13.8643 2.86434 12.6511C2.88388 12.6299 2.90341 12.6093 2.92354 12.5888L3.93501 11.5242C4.33966 11.0983 4.33966 10.4078 3.93501 9.98193C3.53037 9.55603 2.87441 9.55603 2.46976 9.98193L1.45948 11.0465C-0.486493 13.0947 -0.486493 16.4157 1.45948 18.4639C3.40545 20.5121 6.56062 20.5121 8.50659 18.4639L11.9601 14.8289C13.9061 12.7807 13.9061 9.46007 11.9601 7.41187C11.5555 6.98565 10.8995 6.98565 10.4949 7.41187H10.4928L10.4925 7.41156Z" fill="#11192E" style="fill:#11192E;fill:color(display-p3 0.0667 0.0980 0.1804);fill-opacity:1;"/>
</svg>
