<svg width="20" height="20" viewBox="0 0 20 20" fill="none" xmlns="http://www.w3.org/2000/svg">
<path d="M10 1.80192C12.6701 1.80192 12.9863 1.81218 14.0409 1.86037C15.0159 1.90483 15.5453 2.06774 15.8976 2.20454C16.3319 2.36496 16.7249 2.62052 17.0473 2.95257C17.3794 3.27497 17.6349 3.66795 17.7954 4.10228C17.9325 4.45453 18.0951 4.984 18.1395 5.95899C18.1877 7.01357 18.198 7.32975 18.198 9.99978C18.198 12.6698 18.1877 12.986 18.1395 14.0406C18.0951 15.0156 17.9322 15.545 17.7954 15.8973C17.459 16.7694 16.7697 17.4586 15.8976 17.795C15.5453 17.9318 15.0159 18.0947 14.0409 18.1392C12.9866 18.1874 12.6704 18.1976 10 18.1976C7.32963 18.1976 7.01344 18.1874 5.95915 18.1392C4.98415 18.0947 4.45468 17.9318 4.10242 17.795C3.66808 17.6346 3.2751 17.379 2.95269 17.047C2.62064 16.7243 2.36507 16.3316 2.20464 15.8973C2.06784 15.545 1.90493 15.0156 1.86047 14.0406C1.81228 12.986 1.80202 12.6698 1.80202 9.99978C1.80202 7.32975 1.81228 7.01357 1.86047 5.95899C1.90493 4.984 2.06784 4.45453 2.20464 4.10228C2.36507 3.66795 2.62064 3.27497 2.95269 2.95257C3.2751 2.62052 3.66808 2.36496 4.10242 2.20454C4.45468 2.06774 4.98415 1.90483 5.95915 1.86037C7.01375 1.81218 7.32994 1.80192 10 1.80192ZM10 0.000244141C7.28423 0.000244141 6.94348 0.0117475 5.87707 0.0605591C4.81252 0.10906 4.08563 0.27819 3.44983 0.525357C2.78262 0.776566 2.17821 1.17017 1.67858 1.6788C1.16963 2.17811 0.776027 2.78281 0.524814 3.45001C0.277644 4.08611 0.108823 4.813 0.0603216 5.87753C0.0115093 6.94392 0 7.28467 0 10.0004C0 12.7161 0.0115093 13.0569 0.0603216 14.1233C0.108823 15.1878 0.277955 15.9147 0.525125 16.5505C0.776338 17.2177 1.16994 17.8221 1.67858 18.3217C2.17821 18.8303 2.78262 19.2239 3.44983 19.4751C4.08594 19.7223 4.81283 19.8914 5.87707 19.9399C6.94379 19.9887 7.28423 20.0002 10 20.0002C12.7158 20.0002 13.0565 19.9887 14.1229 19.9399C15.1875 19.8914 15.9144 19.7223 16.5502 19.4751C17.8933 18.9556 18.9554 17.8939 19.4749 16.5505C19.7221 15.9144 19.8912 15.1875 19.9397 14.1233C19.9885 13.0566 20 12.7161 20 10.0004C20 7.28467 19.9885 6.94392 19.9397 5.87753C19.8912 4.813 19.7221 4.08611 19.4749 3.45032C19.2237 2.78313 18.8301 2.17873 18.3214 1.67911C17.8218 1.17017 17.2174 0.776566 16.5502 0.525357C15.9141 0.27819 15.1872 0.109371 14.1226 0.06087C13.0562 0.0120584 12.7155 0.000555035 9.99969 0.000555035L10 0.000244141Z" fill="#11192E" style="fill:#11192E;fill:color(display-p3 0.0667 0.0980 0.1804);fill-opacity:1;"/>
<path d="M9.99999 4.86499C7.1639 4.86499 4.86475 7.16411 4.86475 10.0002C4.86475 12.8362 7.1639 15.1353 9.99999 15.1353C12.8361 15.1353 15.1352 12.8362 15.1352 10.0002C15.1352 7.16411 12.8361 4.86499 9.99999 4.86499ZM9.99999 13.3333C8.15911 13.3333 6.66676 11.841 6.66676 10.0002C6.66676 8.1593 8.15911 6.66698 9.99999 6.66698C11.8409 6.66698 13.3332 8.1593 13.3332 10.0002C13.3332 11.841 11.8409 13.3333 9.99999 13.3333Z" fill="#11192E" style="fill:#11192E;fill:color(display-p3 0.0667 0.0980 0.1804);fill-opacity:1;"/>
<path d="M15.3379 3.46204C16.0008 3.46204 16.538 3.99917 16.538 4.66189C16.538 5.32461 16.0008 5.86175 15.3379 5.86175C14.6751 5.86175 14.1378 5.32461 14.1378 4.66189C14.1378 3.99917 14.6751 3.46204 15.3379 3.46204Z" fill="#11192E" style="fill:#11192E;fill:color(display-p3 0.0667 0.0980 0.1804);fill-opacity:1;"/>
</svg>
