<svg width="437" height="424" viewBox="0 0 437 424" fill="none" xmlns="http://www.w3.org/2000/svg">
<path d="M346.828 44.7587V100.663H323.768L308.894 115.296V155.421L313.572 160.226L332.641 141.336L369.326 178.021L334.725 214.21C329.482 219.453 322.372 222.402 314.958 222.402H312.186C304.772 222.402 297.661 219.453 292.419 214.21L262.051 183.843C256.809 178.6 253.866 171.49 253.866 164.076V103.079C253.866 95.6645 256.809 88.554 262.051 83.3115L292.419 52.944C297.661 47.7015 304.772 44.7588 312.186 44.7587H346.828Z" fill="#D9D9D9" style="fill:#D9D9D9;fill:color(display-p3 0.8510 0.8510 0.8510);fill-opacity:1;"/>
<path d="M250.642 196.528C258.056 196.528 265.166 199.471 270.409 204.713L300.777 235.081C306.019 240.323 308.969 247.434 308.969 254.848V337.844C308.968 345.257 306.019 352.369 300.777 357.611L270.409 387.979C265.167 393.22 258.055 396.164 250.642 396.164H247.987C240.573 396.164 233.462 393.22 228.22 387.979L197.852 357.611C192.61 352.369 189.668 345.257 189.667 337.844V254.848C189.667 247.434 192.61 240.323 197.852 235.081L228.22 204.713C233.462 199.471 240.573 196.528 247.987 196.528H250.642ZM245.572 262.826V329.865L249.311 333.605L253.057 329.865V262.826L249.311 259.08L245.572 262.826Z" fill="#FFFB00" style="fill:#FFFB00;fill:color(display-p3 1.0000 0.9833 0.0000);fill-opacity:1;"/>
<path d="M186.771 0C194.185 0 201.296 2.94302 206.538 8.18536L236.906 38.5529C242.148 43.7954 245.098 50.9058 245.098 58.3199V164.245C245.097 171.658 242.148 178.77 236.906 184.012L206.538 214.379C201.296 219.621 194.185 222.564 186.771 222.564H184.116C176.702 222.564 169.591 219.621 164.349 214.379L133.981 184.012C128.74 178.77 125.797 171.658 125.796 164.245V58.3199C125.796 50.9058 128.739 43.7954 133.981 38.5529L164.349 8.18536C169.591 2.94286 176.702 0.000114716 184.116 0H186.771ZM181.701 66.1438V156.103L185.44 159.843L189.186 156.103V66.1438L185.44 62.3976L181.701 66.1438Z" fill="#D9D9D9" style="fill:#D9D9D9;fill:color(display-p3 0.8510 0.8510 0.8510);fill-opacity:1;"/>
<path d="M334.666 224.86C345.112 220.534 357.134 222.924 365.129 230.919L388.324 258.598H437V396.003C436.999 407.309 430.182 417.502 419.737 421.829C409.292 426.154 397.268 423.764 389.274 415.77L369.514 396.003H317.41V250.686C317.41 239.379 324.22 229.187 334.666 224.86Z" fill="#FFFB00" style="fill:#FFFB00;fill:color(display-p3 1.0000 0.9833 0.0000);fill-opacity:1;"/>
<path fill-rule="evenodd" clip-rule="evenodd" d="M60.7694 44.9081C67.6785 45.2511 74.2357 48.1443 79.1504 53.059L109.065 82.9738C114.307 88.2158 117.256 95.3276 117.257 102.741V131.765C117.257 139.179 114.307 146.289 109.065 151.532L97.017 163.583V171.84H99.1029L100.551 171.874C107.786 172.249 114.617 175.426 119.576 180.759L148.839 212.232C159.352 223.539 158.706 241.233 147.399 251.745C136.092 262.257 118.405 261.61 107.892 250.304L86.9242 227.752H69.0646C64.3064 227.751 59.8265 226.562 55.9049 224.465V258.925H0V72.8263C0 57.3871 12.5132 44.8739 27.9524 44.8739H59.3834L60.7694 44.9081ZM55.9049 125.624L61.3455 120.183V114.322L55.9049 108.882V125.624Z" fill="#D9D9D9" style="fill:#D9D9D9;fill:color(display-p3 0.8510 0.8510 0.8510);fill-opacity:1;"/>
</svg>
