<svg width="20" height="21" viewBox="0 0 20 21" fill="none" xmlns="http://www.w3.org/2000/svg">
<path d="M9.52497 0.00820182C7.85229 0.119991 6.09598 0.739623 4.70828 1.7074C3.24314 2.72947 2.08156 4.10927 1.32885 5.71903C0.916876 6.60057 0.65978 7.43101 0.483219 8.45308C0.350025 9.21963 0.322146 10.3759 0.415073 11.2638C0.538975 12.4583 0.96334 13.8892 1.53639 15.0582L1.70056 15.3872L1.31956 16.5594C1.10892 17.2046 0.727925 18.38 0.470828 19.1721C0.210634 19.9674 0 20.6381 0 20.67C0 20.6988 0.0402689 20.7403 0.0898298 20.7595C0.170366 20.7914 0.17966 20.8042 0.164172 20.9032C0.145586 21.0054 0.148684 21.0118 0.219927 20.9894C0.346927 20.9479 3.11924 20.0376 4.29011 19.648C4.90342 19.4467 5.43001 19.2807 5.46099 19.2807C5.48886 19.2807 5.62206 19.335 5.75525 19.4052C6.88896 19.9929 8.097 20.3443 9.38249 20.4656C9.89048 20.5103 10.9251 20.488 11.4238 20.4145C14.3788 19.9929 16.8941 18.3097 18.4428 15.7258C18.9477 14.8826 19.4278 13.7072 19.6849 12.6851C19.9296 11.7045 20.0474 10.4876 19.9823 9.54861C19.815 7.05412 18.8796 4.84388 17.2534 3.10636C15.6767 1.42313 13.6695 0.381897 11.3835 0.0656934C11.049 0.0209777 9.89048 -0.01735 9.52497 0.00820182ZM10.7361 2.19288C11.8419 2.28551 12.7495 2.53783 13.7067 3.02012C15.0045 3.67808 16.0918 4.66183 16.8971 5.91387C17.5167 6.87525 17.8977 7.9101 18.0463 9.04077C18.1176 9.57736 18.1176 10.6633 18.0463 11.2127C17.5414 15.0742 14.4501 18.051 10.6989 18.2937C9.37629 18.3768 8.14656 18.1532 6.94471 17.6102C6.61328 17.4601 6.06501 17.1535 5.89464 17.0257C5.84198 16.9842 5.77384 16.9491 5.74286 16.9491C5.71498 16.9491 5.05521 17.1567 4.28082 17.4122C3.50643 17.6677 2.86833 17.8753 2.86524 17.8689C2.85904 17.8625 3.05729 17.2397 3.30199 16.4859C3.5467 15.729 3.74804 15.0742 3.74804 15.0231C3.74804 14.972 3.69228 14.8538 3.61175 14.7356C2.31697 12.8224 1.8957 10.181 2.5245 7.94204C2.66389 7.45656 2.7785 7.15952 3.00463 6.69639C3.62414 5.44755 4.56889 4.3584 5.73047 3.5599C7.19561 2.55061 9.02627 2.05235 10.7361 2.19288Z" fill="#11192E" style="fill:#11192E;fill:color(display-p3 0.0667 0.0980 0.1804);fill-opacity:1;"/>
<path d="M6.63809 5.14408C6.56685 5.16643 6.46463 5.21754 6.40578 5.25267C6.2478 5.35488 5.78936 5.85953 5.64688 6.08949C5.19154 6.82091 5.08932 7.79508 5.3619 8.74688C5.56944 9.46553 5.82343 10.0149 6.28807 10.7559C6.8766 11.6885 7.2576 12.1932 7.86782 12.8416C8.78469 13.8157 9.55599 14.3619 10.7393 14.8697C11.6128 15.2466 12.2571 15.4606 12.6195 15.499C12.8704 15.5245 13.4186 15.4351 13.7408 15.3137C14.1868 15.1476 14.6979 14.7771 14.8962 14.4769C15.0944 14.1703 15.2988 13.4772 15.3236 13.0172L15.3422 12.7138L15.2462 12.5988C15.178 12.5222 14.8993 12.3497 14.3355 12.0367C12.9974 11.2957 12.827 11.2254 12.6164 11.3404C12.5637 11.3659 12.3655 11.5736 12.1796 11.7971C11.6282 12.4583 11.5136 12.5733 11.4207 12.5733C11.303 12.5733 10.5317 12.1676 10.1724 11.9185C9.75423 11.6247 9.48164 11.3883 9.13782 11.021C8.72894 10.5834 8.28599 9.9574 8.03818 9.46872L7.98243 9.35374L8.20545 9.10141C8.49972 8.77882 8.62052 8.58399 8.73823 8.24543C8.85903 7.90048 8.85284 7.79508 8.67628 7.31918C8.5183 6.89438 8.39131 6.54304 8.17138 5.93299C7.99172 5.43153 7.85853 5.22712 7.67268 5.16643C7.49611 5.11214 6.78368 5.09617 6.63809 5.14408Z" fill="#11192E" style="fill:#11192E;fill:color(display-p3 0.0667 0.0980 0.1804);fill-opacity:1;"/>
</svg>
